<?xml version="1.0" encoding="utf-8"?>
<!-- Generator: Adobe Illustrator 26.0.1, SVG Export Plug-In . SVG Version: 6.00 Build 0)  -->
<svg version="1.1" id="Layer_1" xmlns="http://www.w3.org/2000/svg" xmlns:xlink="http://www.w3.org/1999/xlink" x="0px" y="0px"
	 viewBox="0 0 131 40" style="enable-background:new 0 0 131 40;" xml:space="preserve">
<style type="text/css">
	.st0{fill:url(#SVGID_1_);}
	.st1{fill:#FFFFFF;}
	.st2{fill-rule:evenodd;clip-rule:evenodd;fill:url(#SVGID_00000091715131299819733660000007693205233568106935_);}
	.st3{fill:url(#SVGID_00000060709192757937117280000007621184432330238646_);}
	.st4{fill:#FFFFFF;stroke:#FFFFFF;stroke-width:4;stroke-miterlimit:10;}
	.st5{fill:url(#SVGID_00000164496704073919401130000004077968784955010985_);}
	.st6{fill:url(#SVGID_00000091008947665812112420000015145381494940256691_);}
	.st7{fill:url(#SVGID_00000064323516844830612370000011441785755061096894_);}
	.st8{fill:url(#SVGID_00000074428436764868145230000015532159413260842405_);}
	.st9{fill:url(#SVGID_00000168109422957220945700000016973089297074964403_);}
</style>
<g>
	
		<linearGradient id="SVGID_1_" gradientUnits="userSpaceOnUse" x1="2.6073" y1="17.5675" x2="32.0468" y2="27.6887" gradientTransform="matrix(1 0 0 -1 0 42)">
		<stop  offset="0" style="stop-color:#F11C61"/>
		<stop  offset="1" style="stop-color:#FE6506"/>
	</linearGradient>
	<circle class="st0" cx="15.5" cy="20" r="13.5"/>
	<path class="st1" d="M8.4,15.6c4.2-1,8.3-2.1,12.5-3.1c0.2,0.8,0.4,1.7,0.7,2.5c-3.3,0.8-6.5,1.6-9.8,2.4c0,0,0,0,0,0h10.1
		c0,0,0,0.1,0,0.1c0,2.2,0,4.4,0,6.6c0,1.2-1,2.3-2.2,2.3c-0.1,0-0.2,0-0.4,0c-2.6,0-5.3,0-7.9,0c-0.7,0-1.2-0.2-1.7-0.7
		C9.3,25.4,9,24.9,9,24.3c0-0.1,0-0.2,0-0.4c0-1.9,0-3.9,0-5.8c0-0.2,0-0.4-0.1-0.6C8.8,16.9,8.6,16.3,8.4,15.6
		C8.4,15.7,8.4,15.7,8.4,15.6z M9.6,20.1v0.1c0,1.3,0,2.6,0,3.9c0,0.1,0,0.1,0,0.2c0.1,0.9,0.9,1.5,1.8,1.5c2.7,0,5.3,0,8,0
		c0.1,0,0.1,0,0.2,0c1-0.1,1.7-0.8,1.7-1.8c0-1.3,0-2.6,0-3.9v-0.1H9.6z M11.5,18.1C11.5,18.1,11.5,18.2,11.5,18.1
		c0.3,0.5,0.6,0.9,0.9,1.4c0,0,0.1,0.1,0.1,0.1c0.4,0,0.7,0,1.1,0c0,0,0.1,0,0.1,0c0,0,0,0,0,0c-0.3-0.4-0.6-0.9-0.9-1.3
		c0,0-0.1,0-0.1,0c-0.2,0-0.4,0-0.6,0C11.9,18.1,11.7,18.1,11.5,18.1L11.5,18.1z M16.6,19.5C16.6,19.5,16.6,19.5,16.6,19.5
		c-0.3-0.5-0.6-0.9-0.9-1.4c0,0-0.1-0.1-0.1-0.1c-0.4,0-0.7,0-1.1,0c0,0,0,0-0.1,0c0,0,0,0,0,0.1c0.3,0.4,0.6,0.8,0.8,1.2
		c0.1,0.1,0.2,0.2,0.4,0.2C15.9,19.5,16.3,19.5,16.6,19.5L16.6,19.5z M17.2,18.1C17.3,18.1,17.3,18.2,17.2,18.1
		c0.3,0.5,0.6,0.9,0.9,1.4c0,0.1,0.1,0.1,0.1,0.1c0.4,0,0.7,0,1.1,0c0,0,0.1,0,0.1,0c0,0,0,0,0,0c-0.3-0.4-0.6-0.9-0.9-1.3
		c0,0-0.1,0-0.1,0c-0.2,0-0.4,0-0.6,0C17.6,18.1,17.4,18.1,17.2,18.1L17.2,18.1z M19.1,15C19.1,15,19.1,15,19.1,15
		c-0.4-0.4-0.9-0.7-1.3-1.1c0,0-0.1,0-0.1,0c-0.4,0.1-0.7,0.2-1.1,0.3c0,0,0,0-0.1,0c0,0,0,0,0.1,0c0.4,0.3,0.7,0.6,1.1,0.9
		c0.1,0.1,0.3,0.2,0.5,0.1C18.4,15.2,18.8,15.1,19.1,15z M13.5,16.4C13.5,16.4,13.5,16.4,13.5,16.4c-0.4-0.4-0.8-0.7-1.2-1.1
		c-0.1,0-0.1,0-0.2,0c-0.3,0.1-0.6,0.2-0.9,0.2c-0.1,0-0.1,0-0.2,0.1c0.1,0.1,0.2,0.2,0.3,0.2c0.3,0.3,0.7,0.6,1,0.8
		c0,0,0.1,0,0.1,0C12.7,16.6,13.1,16.5,13.5,16.4z M13.8,14.9C13.8,14.9,13.8,14.9,13.8,14.9c0.4,0.4,0.8,0.7,1.3,1.1
		c0,0,0.1,0,0.1,0c0.3-0.1,0.7-0.2,1-0.3c0,0,0.1,0,0.1,0c-0.4-0.4-0.8-0.7-1.2-1c-0.1-0.1-0.2-0.1-0.3-0.1c-0.1,0-0.1,0-0.2,0.1
		C14.4,14.8,14.1,14.8,13.8,14.9L13.8,14.9z M9.6,19.5h1.2c0,0,0,0,0,0c-0.3-0.5-0.6-0.9-1-1.4c0,0,0,0-0.1,0c-0.1,0-0.1,0-0.2,0
		L9.6,19.5L9.6,19.5z M9.5,17.4c0.4-0.1,0.8-0.2,1.2-0.3c0,0-0.1,0-0.1-0.1c-0.4-0.3-0.8-0.6-1.1-1c-0.1-0.1-0.2-0.1-0.3,0
		C9.3,16.5,9.4,17,9.5,17.4L9.5,17.4z M20.1,18.1c0.3,0.4,0.6,0.9,0.9,1.3c0.1,0.1,0.2,0.1,0.3,0.1v-1.4L20.1,18.1L20.1,18.1z
		 M20.5,13.2c-0.4,0.1-0.8,0.2-1.1,0.3l0,0c0,0,0,0,0,0c0.4,0.3,0.8,0.6,1.1,1c0.1,0.1,0.2,0.1,0.3,0C20.7,14.1,20.6,13.7,20.5,13.2
		L20.5,13.2z"/>
	<path class="st1" d="M14.4,21.3C14.4,21.3,14.4,21.3,14.4,21.3c0.9,0.5,1.7,0.9,2.5,1.4c0.1,0.1,0.3,0.2,0.4,0.2
		c0.1,0.1,0.1,0.1,0,0.2c-0.8,0.5-1.6,0.9-2.4,1.4c-0.1,0.1-0.3,0.2-0.4,0.2c-0.1,0.1-0.2,0-0.2-0.1c0-1.1,0-2.2,0-3.2
		C14.3,21.3,14.3,21.3,14.4,21.3z"/>
</g>
<linearGradient id="SVGID_00000013194368829806007030000012739332463862631842_" gradientUnits="userSpaceOnUse" x1="35.3437" y1="-11.5749" x2="124.3006" y2="-9.2822" gradientTransform="matrix(1 0 0 -1 0 42)">
	<stop  offset="0" style="stop-color:#F89E00"/>
	<stop  offset="1" style="stop-color:#DA2F68"/>
</linearGradient>
<path style="fill-rule:evenodd;clip-rule:evenodd;fill:url(#SVGID_00000013194368829806007030000012739332463862631842_);" d="
	M96.7,54.3v-6.4h4.6v6.4H96.7z M91.2,54.3l2.8-6.4h-5.1l-2.2,6.4H91.2z M86.1,56.3h4.2l-3.1,7h-3.7l-2.9-7h4.4l0.5,1.5L86.1,56.3z
	 M84.4,54.3l-2.1-6.4h-5.1l2.7,6.4H84.4z M76.2,54.3c-0.1-1-0.5-2-1-2.8c-0.7-1.2-1.7-2.1-3-2.8c-1.2-0.7-2.7-1-4.3-1
	c-1.6,0-3,0.3-4.3,1c-1.2,0.7-2.2,1.6-3,2.8c-0.5,0.9-0.8,1.8-1,2.8h4.8c0.1-0.3,0.2-0.5,0.3-0.8c0.3-0.6,0.7-1.1,1.3-1.4
	c0.6-0.3,1.2-0.5,1.9-0.5c0.7,0,1.3,0.2,1.9,0.5c0.5,0.3,1,0.8,1.3,1.4c0.1,0.2,0.2,0.5,0.3,0.8H76.2z M76.2,56.3h-4.7
	c-0.1,0.5-0.2,0.9-0.4,1.3c-0.3,0.6-0.7,1.1-1.3,1.4c-0.5,0.3-1.2,0.5-1.9,0.5c-0.7,0-1.3-0.2-1.9-0.5c-0.5-0.3-1-0.8-1.3-1.4
	c-0.2-0.4-0.3-0.9-0.4-1.3h-4.7c0.1,1.3,0.4,2.4,1,3.4c0.7,1.2,1.7,2.1,3,2.8c1.3,0.7,2.7,1,4.3,1c1.6,0,3-0.3,4.3-1
	c1.3-0.7,2.2-1.6,3-2.8C75.8,58.7,76.1,57.5,76.2,56.3z M96.7,56.3h4.6v7h-4.6V56.3z M109.2,56.3l-5,7h5.5l2.6-4.5l3,4.5h5.5l-5-7
	H109.2z M115.9,54.3l4.5-6.4h-5.5l-2.2,4.2l-2.8-4.2h-5.6l4.7,6.4H115.9z M99,44.8c-0.9,0-1.6-0.2-2.1-0.6c-0.5-0.4-0.7-1-0.7-1.8
	c0-0.7,0.3-1.3,0.8-1.7c0.5-0.4,1.2-0.7,2-0.7c0.9,0,1.5,0.2,2,0.6c0.5,0.4,0.7,1,0.7,1.7c0,0.7-0.3,1.3-0.8,1.7
	C100.5,44.6,99.9,44.8,99,44.8z M35.8,63.3V43h4.4l5.8,9.5l5.9-9.5h4.2v20.3h-4.8v-6.3c0-1.7,0-3.3,0.1-4.7c0-0.4,0.1-0.8,0.1-1.2
	l-4.7,7.3h-1.9l-4.6-7.2c0,0.3,0,0.7,0.1,1c0.1,1.4,0.1,3,0.1,4.8v6.3H35.8z"/>
<image style="overflow:visible;" width="478" height="478" xlink:href="movix-logo.png"  transform="matrix(4.995812e-02 0 0 4.995812e-02 6.6252 41.1596)">
</image>
<linearGradient id="SVGID_00000041981804756993536520000000754178051824050841_" gradientUnits="userSpaceOnUse" x1="-490.6237" y1="113.2141" x2="-229.1066" y2="113.2141">
	<stop  offset="0" style="stop-color:#EE0979"/>
	<stop  offset="1" style="stop-color:#FF6A00"/>
</linearGradient>
<path style="fill:url(#SVGID_00000041981804756993536520000000754178051824050841_);" d="M-359.9,244L-359.9,244
	c-72.2,0-130.8-58.5-130.8-130.8v0c0-72.2,58.5-130.8,130.8-130.8h0c72.2,0,130.8,58.5,130.8,130.8v0
	C-229.1,185.4-287.6,244-359.9,244z"/>
<g>
	<g>
		<g>
			<g>
				<path class="st1" d="M-284.3,176.4h-149.2c-0.9,0-1.6-0.7-1.6-1.6v-84c0-0.9,0.7-1.6,1.6-1.6h149.2c0.9,0,1.6,0.7,1.6,1.6v84
					C-282.6,175.7-283.4,176.4-284.3,176.4z M-433,174.3h148.1V91.3H-433V174.3z"/>
			</g>
		</g>
	</g>
	<g>
		<g>
			<g>
				<path class="st4" d="M-285.9,51.6l-2-11.5c-0.1-0.6-0.7-1.1-1.3-0.9L-435,64.9c-0.6,0.1-1.1,0.7-0.9,1.3l2.1,12.1l147.4-26
					C-286.1,52.3-285.8,52-285.9,51.6z M-413,73.2l-12.6-8.8l5.6-1l12.6,8.8L-413,73.2z M-396.1,70.2l-12.6-8.8l5.6-1l12.6,8.8
					L-396.1,70.2z M-379.2,67.2l-12.6-8.8l5.6-1l12.6,8.8L-379.2,67.2z M-362.4,64.3l-12.6-8.8l5.6-1l12.6,8.8L-362.4,64.3z
					 M-345.5,61.3l-12.6-8.8l5.6-1l12.6,8.8L-345.5,61.3z M-328.6,58.3l-12.6-8.8l5.6-1l12.6,8.8L-328.6,58.3z M-311.8,55.4
					l-12.6-8.8l5.6-1l12.6,8.8L-311.8,55.4z M-294.9,52.4l-12.6-8.8l5.6-1l12.6,8.8L-294.9,52.4z"/>
			</g>
		</g>
	</g>
	<g>
		<g>
			<g>
				<path class="st4" d="M-284.9,76.8h-148.1c-0.6,0-1.1,0.5-1.1,1.1v12.3h150.3V77.9C-283.7,77.3-284.2,76.8-284.9,76.8z
					 M-416.1,88.9h-5.7l10.8-10.8h5.7L-416.1,88.9z M-398.9,88.9h-5.7l10.8-10.8h5.7L-398.9,88.9z M-381.8,88.9h-5.7l10.8-10.8h5.7
					L-381.8,88.9z M-364.7,88.9h-5.7l10.8-10.8h5.7L-364.7,88.9z M-347.5,88.9h-5.7l10.8-10.8h5.7L-347.5,88.9z M-330.4,88.9h-5.7
					l10.8-10.8h5.7L-330.4,88.9z M-313.3,88.9h-5.7l10.8-10.8h5.7L-313.3,88.9z M-296.2,88.9h-5.7l10.8-10.8h5.7L-296.2,88.9z"/>
			</g>
		</g>
	</g>
	<g>
		<g>
			<path class="st1" d="M-283.7,173.8h-150.3v9.1c0,2.4,1.9,4.3,4.3,4.3h141.6c2.4,0,4.3-1.9,4.3-4.3V173.8z"/>
		</g>
		<g>
			<g>
				<path class="st1" d="M-286.1,188.3h-145.6c-1.9,0-3.5-1.6-3.5-3.5v-12.2h152.5v12.2C-282.6,186.8-284.2,188.3-286.1,188.3z
					 M-433,174.9v10c0,0.7,0.6,1.3,1.3,1.3h145.6c0.7,0,1.3-0.6,1.3-1.3v-10H-433z"/>
			</g>
		</g>
	</g>
	<g>
		<g>
			<g>
				<path class="st1" d="M-358.9,112.1c-10.8,0-19.6,8.8-19.6,19.6s8.8,19.6,19.6,19.6c10.8,0,19.6-8.8,19.6-19.6
					S-348.1,112.1-358.9,112.1z M-352.3,133.1l-4.9,2.8l-4.9,2.8c-1.1,0.6-2.4-0.2-2.4-1.4v-11.3c0-1.3,1.4-2,2.4-1.4l4.9,2.8
					l4.9,2.8C-351.2,130.9-351.2,132.5-352.3,133.1z"/>
			</g>
			<g>
				<path class="st1" d="M-358.9,152.4c-11.4,0-20.7-9.3-20.7-20.7c0-11.4,9.3-20.7,20.7-20.7c11.4,0,20.7,9.3,20.7,20.7
					C-338.2,143.1-347.5,152.4-358.9,152.4z M-358.9,113.2c-10.2,0-18.5,8.3-18.5,18.5c0,10.2,8.3,18.5,18.5,18.5
					c10.2,0,18.5-8.3,18.5-18.5C-340.4,121.5-348.7,113.2-358.9,113.2z M-362.9,140.1c-0.5,0-0.9-0.1-1.4-0.4
					c-0.9-0.5-1.4-1.4-1.4-2.4v-11.3c0-1,0.5-1.9,1.4-2.4c0.9-0.5,1.9-0.5,2.7,0l9.7,5.6c0.9,0.5,1.4,1.4,1.4,2.4
					c0,1-0.5,1.9-1.4,2.4l-9.7,5.6C-361.9,139.9-362.4,140.1-362.9,140.1z M-362.9,125.5c-0.1,0-0.2,0-0.3,0.1
					c-0.1,0-0.3,0.2-0.3,0.5v11.3c0,0.3,0.2,0.4,0.3,0.5c0.1,0,0.3,0.1,0.5,0l9.7-5.6c0.2-0.1,0.3-0.4,0.3-0.5c0-0.1,0-0.3-0.3-0.5
					l-9.7-5.6C-362.7,125.6-362.8,125.5-362.9,125.5z"/>
			</g>
		</g>
	</g>
</g>
<g>
	
		<linearGradient id="SVGID_00000111185287608831418310000007432994429457503111_" gradientUnits="userSpaceOnUse" x1="36.286" y1="19.5136" x2="113.4516" y2="21.9905">
		<stop  offset="0" style="stop-color:#F11C61"/>
		<stop  offset="1" style="stop-color:#FE6506"/>
	</linearGradient>
	<path style="fill:url(#SVGID_00000111185287608831418310000007432994429457503111_);" d="M61.4,31.4h-5.5V19.8l-6.5,11.9l-6.5-11.9
		v11.6h-5.5V8.5h5.9l6.1,11.1l6.1-11.1h5.9V31.4z"/>
	
		<linearGradient id="SVGID_00000031924618870405400910000004622770746301846657_" gradientUnits="userSpaceOnUse" x1="36.2105" y1="21.8663" x2="113.3761" y2="24.3432">
		<stop  offset="0" style="stop-color:#F11C61"/>
		<stop  offset="1" style="stop-color:#FE6506"/>
	</linearGradient>
	<path style="fill:url(#SVGID_00000031924618870405400910000004622770746301846657_);" d="M82.5,23.1c0,1.4-0.3,2.7-0.8,3.8
		c-0.5,1.1-1.2,2-2.1,2.7c-0.9,0.7-1.9,1.2-3,1.6c-1.1,0.4-2.3,0.5-3.5,0.5c-1.2,0-2.3-0.2-3.5-0.5c-1.1-0.4-2.1-0.9-3-1.6
		c-0.9-0.7-1.6-1.6-2.1-2.7c-0.5-1.1-0.8-2.3-0.8-3.8c0-1.4,0.3-2.7,0.8-3.8c0.5-1.1,1.2-2,2.1-2.7c0.9-0.7,1.9-1.3,3-1.6
		c1.1-0.4,2.3-0.5,3.5-0.5c1.2,0,2.4,0.2,3.5,0.5c1.1,0.4,2.1,0.9,3,1.6c0.9,0.7,1.6,1.6,2.1,2.7C82.3,20.4,82.5,21.6,82.5,23.1z
		 M76.1,26.4c0.4-0.4,0.8-1,1-1.5c0.2-0.6,0.3-1.2,0.3-1.8c0-0.6-0.1-1.3-0.3-1.8c-0.2-0.6-0.5-1.1-1-1.5c-0.4-0.4-0.9-0.8-1.5-1
		c-0.6-0.2-1.1-0.3-1.5-0.3c-0.4,0-0.9,0.1-1.5,0.3c-0.6,0.2-1.1,0.5-1.5,1c-0.4,0.4-0.8,1-1,1.5c-0.2,0.6-0.3,1.2-0.3,1.8
		c0,0.6,0.1,1.2,0.3,1.8c0.2,0.6,0.5,1.1,1,1.5s0.9,0.8,1.5,1c0.6,0.2,1.1,0.3,1.5,0.3c0.5,0,1-0.1,1.5-0.3
		C75.2,27.2,75.7,26.8,76.1,26.4z"/>
	
		<linearGradient id="SVGID_00000083068597867595547450000001459456402248200627_" gradientUnits="userSpaceOnUse" x1="36.2346" y1="21.1177" x2="113.4001" y2="23.5946">
		<stop  offset="0" style="stop-color:#F11C61"/>
		<stop  offset="1" style="stop-color:#FE6506"/>
	</linearGradient>
	<path style="fill:url(#SVGID_00000083068597867595547450000001459456402248200627_);" d="M102.7,14.7l-7,16.7h-5.6l-6.6-16.7h5.6
		l3.8,10l4.2-10H102.7z"/>
	
		<linearGradient id="SVGID_00000035490068078622359140000000350312684746201756_" gradientUnits="userSpaceOnUse" x1="36.3462" y1="17.6395" x2="113.5118" y2="20.1164">
		<stop  offset="0" style="stop-color:#F11C61"/>
		<stop  offset="1" style="stop-color:#FE6506"/>
	</linearGradient>
	<path style="fill:url(#SVGID_00000035490068078622359140000000350312684746201756_);" d="M107,13.5c-0.4,0-0.7-0.1-1-0.2
		c-0.3-0.1-0.6-0.3-0.8-0.5c-0.2-0.2-0.4-0.5-0.6-0.8c-0.1-0.3-0.2-0.6-0.2-1c0-0.7,0.3-1.3,0.8-1.8c0.5-0.5,1.1-0.8,1.8-0.8
		c0.7,0,1.3,0.3,1.8,0.8c0.5,0.5,0.8,1.1,0.8,1.8c0,0.7-0.3,1.3-0.8,1.8C108.3,13.3,107.7,13.5,107,13.5z M104.4,14.7h5.2v16.6h-5.2
		V14.7z"/>
	
		<linearGradient id="SVGID_00000160182393556061046450000003646718623403556760_" gradientUnits="userSpaceOnUse" x1="36.2583" y1="20.3795" x2="113.4238" y2="22.8564">
		<stop  offset="0" style="stop-color:#F11C61"/>
		<stop  offset="1" style="stop-color:#FE6506"/>
	</linearGradient>
	<path style="fill:url(#SVGID_00000160182393556061046450000003646718623403556760_);" d="M119.6,27.4h7.1v4h-14.9l7.3-12.6h-6.5
		v-4.1h14.7L119.6,27.4z"/>
</g>
<text transform="matrix(1 0 0 1 -11.2722 -12.6146)" style="font-family:'Adca'; font-size:31.1875px;">Moviz</text>
</svg>
